<mxfile host="www.draw.io" modified="2020-02-05T08:42:22.877Z" agent="Mozilla/5.0 (Windows NT 10.0; Win64; x64) AppleWebKit/537.36 (KHTML, like Gecko) Chrome/79.0.3945.130 Safari/537.36" etag="p6hA_Jd4PndJP2rhQF0O" version="12.6.5" type="github">
  <diagram id="bkBW-zcFe7vkk3dly8kr" name="Page-1">
    <mxGraphModel dx="1673" dy="876" grid="1" gridSize="10" guides="1" tooltips="1" connect="1" arrows="1" fold="1" page="1" pageScale="1" pageWidth="827" pageHeight="1169" math="0" shadow="0">
      <root>
        <mxCell id="0"/>
        <mxCell id="1" parent="0"/>
        <mxCell id="LnSs4wfKQTrMOUxZGRv1-1" value="TUTOR" style="rounded=0;whiteSpace=wrap;html=1;" parent="1" vertex="1">
          <mxGeometry x="73" y="320" width="120" height="60" as="geometry"/>
        </mxCell>
        <mxCell id="LnSs4wfKQTrMOUxZGRv1-2" value="STUDENTE" style="rounded=0;whiteSpace=wrap;html=1;" parent="1" vertex="1">
          <mxGeometry x="633" y="320" width="120" height="60" as="geometry"/>
        </mxCell>
        <mxCell id="LnSs4wfKQTrMOUxZGRv1-10" value="MATERIA" style="rounded=0;whiteSpace=wrap;html=1;" parent="1" vertex="1">
          <mxGeometry x="340" y="730" width="120" height="60" as="geometry"/>
        </mxCell>
        <mxCell id="LnSs4wfKQTrMOUxZGRv1-12" value="INSEGNA" style="rhombus;whiteSpace=wrap;html=1;" parent="1" vertex="1">
          <mxGeometry x="20" y="680" width="110" height="110" as="geometry"/>
        </mxCell>
        <mxCell id="LnSs4wfKQTrMOUxZGRv1-15" value="" style="endArrow=none;html=1;entryX=0;entryY=1;entryDx=0;entryDy=0;exitX=0.5;exitY=0;exitDx=0;exitDy=0;" parent="1" source="LnSs4wfKQTrMOUxZGRv1-12" target="LnSs4wfKQTrMOUxZGRv1-1" edge="1">
          <mxGeometry width="50" height="50" relative="1" as="geometry">
            <mxPoint x="73" y="860" as="sourcePoint"/>
            <mxPoint x="123" y="810" as="targetPoint"/>
          </mxGeometry>
        </mxCell>
        <mxCell id="LnSs4wfKQTrMOUxZGRv1-16" value="N" style="text;html=1;align=center;verticalAlign=middle;resizable=0;points=[];autosize=1;" parent="1" vertex="1">
          <mxGeometry x="320" y="760" width="20" height="20" as="geometry"/>
        </mxCell>
        <mxCell id="LnSs4wfKQTrMOUxZGRv1-17" value="" style="endArrow=none;dashed=1;html=1;entryX=0.5;entryY=1;entryDx=0;entryDy=0;" parent="1" target="LnSs4wfKQTrMOUxZGRv1-12" edge="1">
          <mxGeometry width="50" height="50" relative="1" as="geometry">
            <mxPoint x="344" y="790" as="sourcePoint"/>
            <mxPoint x="123" y="810" as="targetPoint"/>
          </mxGeometry>
        </mxCell>
        <mxCell id="LnSs4wfKQTrMOUxZGRv1-18" value="1" style="text;html=1;align=center;verticalAlign=middle;resizable=0;points=[];autosize=1;" parent="1" vertex="1">
          <mxGeometry x="150" y="380" width="20" height="20" as="geometry"/>
        </mxCell>
        <mxCell id="25OiAbkPgjEHPYSIEPSn-13" value="1" style="text;html=1;align=center;verticalAlign=middle;resizable=0;points=[];autosize=1;" vertex="1" parent="1">
          <mxGeometry x="310" y="540" width="20" height="20" as="geometry"/>
        </mxCell>
        <mxCell id="LnSs4wfKQTrMOUxZGRv1-19" value="PRENDE" style="rhombus;whiteSpace=wrap;html=1;" parent="1" vertex="1">
          <mxGeometry x="580" y="430" width="110" height="110" as="geometry"/>
        </mxCell>
        <mxCell id="LnSs4wfKQTrMOUxZGRv1-20" value="" style="endArrow=none;dashed=1;html=1;entryX=0;entryY=1;entryDx=0;entryDy=0;exitX=0.5;exitY=0;exitDx=0;exitDy=0;" parent="1" source="LnSs4wfKQTrMOUxZGRv1-19" target="LnSs4wfKQTrMOUxZGRv1-2" edge="1">
          <mxGeometry width="50" height="50" relative="1" as="geometry">
            <mxPoint x="73" y="860" as="sourcePoint"/>
            <mxPoint x="123" y="810" as="targetPoint"/>
          </mxGeometry>
        </mxCell>
        <mxCell id="LnSs4wfKQTrMOUxZGRv1-23" value="1" style="text;html=1;align=center;verticalAlign=middle;resizable=0;points=[];autosize=1;" parent="1" vertex="1">
          <mxGeometry x="633" y="380" width="20" height="20" as="geometry"/>
        </mxCell>
        <mxCell id="LnSs4wfKQTrMOUxZGRv1-24" value="UTENTE" style="rounded=0;whiteSpace=wrap;html=1;" parent="1" vertex="1">
          <mxGeometry x="346" y="90" width="120" height="60" as="geometry"/>
        </mxCell>
        <mxCell id="LnSs4wfKQTrMOUxZGRv1-25" value="" style="endArrow=classic;html=1;entryX=0.5;entryY=1;entryDx=0;entryDy=0;exitX=0.5;exitY=0;exitDx=0;exitDy=0;" parent="1" source="LnSs4wfKQTrMOUxZGRv1-1" target="LnSs4wfKQTrMOUxZGRv1-24" edge="1">
          <mxGeometry width="50" height="50" relative="1" as="geometry">
            <mxPoint x="70" y="860" as="sourcePoint"/>
            <mxPoint x="120" y="810" as="targetPoint"/>
            <Array as="points">
              <mxPoint x="133" y="200"/>
              <mxPoint x="406" y="200"/>
            </Array>
          </mxGeometry>
        </mxCell>
        <mxCell id="LnSs4wfKQTrMOUxZGRv1-26" value="" style="endArrow=classic;html=1;entryX=0.5;entryY=1;entryDx=0;entryDy=0;exitX=0.5;exitY=0;exitDx=0;exitDy=0;" parent="1" source="LnSs4wfKQTrMOUxZGRv1-2" target="LnSs4wfKQTrMOUxZGRv1-24" edge="1">
          <mxGeometry width="50" height="50" relative="1" as="geometry">
            <mxPoint x="70" y="860" as="sourcePoint"/>
            <mxPoint x="120" y="810" as="targetPoint"/>
            <Array as="points">
              <mxPoint x="693" y="200"/>
              <mxPoint x="406" y="200"/>
            </Array>
          </mxGeometry>
        </mxCell>
        <mxCell id="25OiAbkPgjEHPYSIEPSn-2" value="(CF, nome, cognome, password, email,&lt;br&gt;indirizzoResidenza, numeroTelefonico)" style="text;html=1;align=center;verticalAlign=middle;resizable=0;points=[];autosize=1;" vertex="1" parent="1">
          <mxGeometry x="296" y="50" width="220" height="30" as="geometry"/>
        </mxCell>
        <mxCell id="25OiAbkPgjEHPYSIEPSn-3" value="(interno,&lt;br&gt;descrizione, attivato,&lt;br&gt;statoFormazione,)" style="text;html=1;align=center;verticalAlign=middle;resizable=0;points=[];autosize=1;" vertex="1" parent="1">
          <mxGeometry x="140" y="265" width="120" height="50" as="geometry"/>
        </mxCell>
        <mxCell id="25OiAbkPgjEHPYSIEPSn-4" value="(nome, ID)" style="text;html=1;align=center;verticalAlign=middle;resizable=0;points=[];autosize=1;" vertex="1" parent="1">
          <mxGeometry x="378" y="800" width="70" height="20" as="geometry"/>
        </mxCell>
        <mxCell id="25OiAbkPgjEHPYSIEPSn-6" value="data" style="text;html=1;strokeColor=none;fillColor=none;align=center;verticalAlign=middle;whiteSpace=wrap;rounded=0;" vertex="1" parent="1">
          <mxGeometry x="560" y="440" width="40" height="20" as="geometry"/>
        </mxCell>
        <mxCell id="25OiAbkPgjEHPYSIEPSn-8" value="voto" style="text;html=1;align=center;verticalAlign=middle;resizable=0;points=[];autosize=1;" vertex="1" parent="1">
          <mxGeometry x="100" y="680" width="40" height="20" as="geometry"/>
        </mxCell>
        <mxCell id="25OiAbkPgjEHPYSIEPSn-10" value="(classe)" style="text;html=1;align=center;verticalAlign=middle;resizable=0;points=[];autosize=1;" vertex="1" parent="1">
          <mxGeometry x="690" y="295" width="60" height="20" as="geometry"/>
        </mxCell>
        <mxCell id="25OiAbkPgjEHPYSIEPSn-12" value="RIPETIZIONE" style="rounded=0;whiteSpace=wrap;html=1;" vertex="1" parent="1">
          <mxGeometry x="340" y="510" width="120" height="60" as="geometry"/>
        </mxCell>
        <mxCell id="25OiAbkPgjEHPYSIEPSn-17" value="EFFETTUA" style="rhombus;whiteSpace=wrap;html=1;" vertex="1" parent="1">
          <mxGeometry x="160" y="440" width="110" height="110" as="geometry"/>
        </mxCell>
        <mxCell id="25OiAbkPgjEHPYSIEPSn-18" value="1" style="text;html=1;align=center;verticalAlign=middle;resizable=0;points=[];autosize=1;" vertex="1" parent="1">
          <mxGeometry x="466" y="540" width="20" height="20" as="geometry"/>
        </mxCell>
        <mxCell id="25OiAbkPgjEHPYSIEPSn-19" value="" style="endArrow=none;dashed=1;html=1;entryX=0.5;entryY=1;entryDx=0;entryDy=0;exitX=0;exitY=0;exitDx=0;exitDy=0;" edge="1" parent="1" source="25OiAbkPgjEHPYSIEPSn-17" target="LnSs4wfKQTrMOUxZGRv1-1">
          <mxGeometry width="50" height="50" relative="1" as="geometry">
            <mxPoint x="20" y="890" as="sourcePoint"/>
            <mxPoint x="70" y="840" as="targetPoint"/>
          </mxGeometry>
        </mxCell>
        <mxCell id="25OiAbkPgjEHPYSIEPSn-20" value="" style="endArrow=none;html=1;entryX=0;entryY=0.5;entryDx=0;entryDy=0;exitX=1;exitY=1;exitDx=0;exitDy=0;" edge="1" parent="1" source="25OiAbkPgjEHPYSIEPSn-17" target="25OiAbkPgjEHPYSIEPSn-12">
          <mxGeometry width="50" height="50" relative="1" as="geometry">
            <mxPoint x="20" y="890" as="sourcePoint"/>
            <mxPoint x="70" y="840" as="targetPoint"/>
          </mxGeometry>
        </mxCell>
        <mxCell id="25OiAbkPgjEHPYSIEPSn-21" value="" style="endArrow=none;html=1;entryX=0;entryY=1;entryDx=0;entryDy=0;exitX=1;exitY=0.5;exitDx=0;exitDy=0;" edge="1" parent="1" source="25OiAbkPgjEHPYSIEPSn-12" target="LnSs4wfKQTrMOUxZGRv1-19">
          <mxGeometry width="50" height="50" relative="1" as="geometry">
            <mxPoint x="20" y="890" as="sourcePoint"/>
            <mxPoint x="70" y="840" as="targetPoint"/>
          </mxGeometry>
        </mxCell>
        <mxCell id="25OiAbkPgjEHPYSIEPSn-22" value="Text" style="text;html=1;align=center;verticalAlign=middle;resizable=0;points=[];autosize=1;" vertex="1" parent="1">
          <mxGeometry x="164" y="390" width="40" height="20" as="geometry"/>
        </mxCell>
        <mxCell id="25OiAbkPgjEHPYSIEPSn-23" value="N" style="text;html=1;align=center;verticalAlign=middle;resizable=0;points=[];autosize=1;" vertex="1" parent="1">
          <mxGeometry x="80" y="390" width="20" height="20" as="geometry"/>
        </mxCell>
        <mxCell id="25OiAbkPgjEHPYSIEPSn-24" value="(ID, data)" style="text;html=1;align=center;verticalAlign=middle;resizable=0;points=[];autosize=1;" vertex="1" parent="1">
          <mxGeometry x="365" y="485" width="70" height="20" as="geometry"/>
        </mxCell>
        <mxCell id="25OiAbkPgjEHPYSIEPSn-25" value="IN" style="rhombus;whiteSpace=wrap;html=1;" vertex="1" parent="1">
          <mxGeometry x="360" y="610" width="80" height="80" as="geometry"/>
        </mxCell>
        <mxCell id="25OiAbkPgjEHPYSIEPSn-26" value="" style="endArrow=none;html=1;entryX=0.5;entryY=1;entryDx=0;entryDy=0;exitX=0.5;exitY=0;exitDx=0;exitDy=0;" edge="1" parent="1" source="25OiAbkPgjEHPYSIEPSn-25" target="25OiAbkPgjEHPYSIEPSn-12">
          <mxGeometry width="50" height="50" relative="1" as="geometry">
            <mxPoint x="20" y="890" as="sourcePoint"/>
            <mxPoint x="70" y="840" as="targetPoint"/>
          </mxGeometry>
        </mxCell>
        <mxCell id="25OiAbkPgjEHPYSIEPSn-27" value="1" style="text;html=1;align=center;verticalAlign=middle;resizable=0;points=[];autosize=1;" vertex="1" parent="1">
          <mxGeometry x="403" y="700" width="20" height="20" as="geometry"/>
        </mxCell>
        <mxCell id="25OiAbkPgjEHPYSIEPSn-28" value="" style="endArrow=none;dashed=1;html=1;entryX=0.5;entryY=1;entryDx=0;entryDy=0;exitX=0.5;exitY=0;exitDx=0;exitDy=0;" edge="1" parent="1" source="LnSs4wfKQTrMOUxZGRv1-10" target="25OiAbkPgjEHPYSIEPSn-25">
          <mxGeometry width="50" height="50" relative="1" as="geometry">
            <mxPoint x="20" y="890" as="sourcePoint"/>
            <mxPoint x="70" y="840" as="targetPoint"/>
          </mxGeometry>
        </mxCell>
        <mxCell id="25OiAbkPgjEHPYSIEPSn-29" value="N" style="text;html=1;align=center;verticalAlign=middle;resizable=0;points=[];autosize=1;" vertex="1" parent="1">
          <mxGeometry x="403" y="574" width="20" height="20" as="geometry"/>
        </mxCell>
      </root>
    </mxGraphModel>
  </diagram>
</mxfile>
